<?xml version="1.0" encoding="UTF-8"?>
<svg id="Capa_1" data-name="Capa 1" xmlns="http://www.w3.org/2000/svg" viewBox="0 0 500 73.9">
  <defs>
    <style>
      .cls-1 {
        fill: none;
      }

      .cls-2 {
        fill: #004bf2;
      }
    </style>
  </defs>
  <g>
    <path d="M137.6,55.27v7.95h-44.99V12.15h43.79v7.95h-32.65v13.28h28.97v7.81h-28.97v14.08h33.85Z"/>
    <path d="M205.13,63.23l-.09-33.85-19.71,28.02h-4.97l-19.71-27.58v33.42h-10.63V12.15h9.17l23.82,33.85,23.4-33.85h9.17l.09,51.07h-10.54Z"/>
    <path d="M285.17,49.36c0,8.76-8.06,13.86-23.48,13.86h-29.82V12.15h28.11c14.4,0,22.11,5.18,22.11,13.28,0,5.25-3.09,9.12-7.71,11.24,6.43,1.75,10.8,6.06,10.8,12.7ZM243,19.6v14.08h15.77c7.71,0,12.08-2.33,12.08-7s-4.37-7.08-12.08-7.08h-15.77ZM273.94,48.42c0-5.11-4.54-7.37-12.94-7.37h-18v14.74h18c8.4,0,12.94-2.26,12.94-7.37Z"/>
    <path d="M292.79,37.69c0-15.1,13.71-26.27,32.31-26.27s32.31,11.09,32.31,26.27-13.71,26.27-32.31,26.27-32.31-11.16-32.31-26.27ZM346.18,37.69c0-10.43-9-17.95-21.08-17.95s-21.08,7.52-21.08,17.95,9,17.95,21.08,17.95,21.08-7.52,21.08-17.95Z"/>
    <path d="M408.48,63.23l-12.25-14.96c-.77.07-1.54.07-2.31.07h-13.54v14.88h-11.14V12.15h24.68c15.77,0,25.54,6.86,25.54,18.17,0,7.73-4.63,13.43-12.77,16.12l13.8,16.78h-12ZM393.4,20.18h-13.03v20.36h13.03c9.77,0,14.83-3.79,14.83-10.21s-5.06-10.14-14.83-10.14Z"/>
    <path class="cls-2" d="M69.96,63.16l-.09-33.85-20.74,28.02h-5.23l-20.74-27.58v33.42h-11.18V12.09h9.65l25.07,33.85,24.62-33.85h9.65l.09,51.07h-11.09Z"/>
  </g>
  <g>
    <polygon class="cls-1" points="470.45 43.84 465.88 34.82 470.36 43.84 470.45 43.84"/>
    <polygon class="cls-1" points="459.14 21.52 453.67 32.4 464.55 32.2 459.14 21.52"/>
    <path d="M480.13,63.1h11.65l-27.08-51.07h-10.97l-26.99,51.07h11.48c.59,0,3.61-7.36,3.93-7.99,1.83-3.64,3.67-7.28,5.5-10.92,3.81-7.56,7.41-15.28,11.49-22.69,6.75,13.98,13.96,27.75,20.99,41.59Z"/>
  </g>
  <polygon class="cls-2" points="491.79 63.1 458.7 63.1 458.7 54.35 487.12 54.34 491.79 63.1"/>
  <circle cx="46.51" cy="18.33" r="6.34"/>
</svg>